<mxfile host="app.diagrams.net" agent="Mozilla/5.0 (Windows NT 10.0; Win64; x64) AppleWebKit/537.36 (KHTML, like Gecko) Chrome/135.0.0.0 Safari/537.36" version="26.2.14">
  <diagram name="Page-1" id="NaV1If10QUYctrlVIBG0">
    <mxGraphModel dx="872" dy="439" grid="1" gridSize="10" guides="1" tooltips="1" connect="1" arrows="1" fold="1" page="1" pageScale="1" pageWidth="850" pageHeight="1100" math="0" shadow="0">
      <root>
        <mxCell id="0" />
        <mxCell id="1" parent="0" />
        <mxCell id="8Y5Sv0htWd_NGtNkYQzM-1" style="edgeStyle=orthogonalEdgeStyle;rounded=0;orthogonalLoop=1;jettySize=auto;html=1;entryX=0.5;entryY=0;entryDx=0;entryDy=0;" edge="1" parent="1" source="8Y5Sv0htWd_NGtNkYQzM-2" target="8Y5Sv0htWd_NGtNkYQzM-6">
          <mxGeometry relative="1" as="geometry" />
        </mxCell>
        <mxCell id="8Y5Sv0htWd_NGtNkYQzM-2" value="" style="ellipse;html=1;shape=startState;fillColor=#000000;strokeColor=none;" vertex="1" parent="1">
          <mxGeometry x="560" y="290" width="30" height="30" as="geometry" />
        </mxCell>
        <mxCell id="8Y5Sv0htWd_NGtNkYQzM-3" value="" style="edgeStyle=orthogonalEdgeStyle;html=1;verticalAlign=bottom;endArrow=open;endSize=8;strokeColor=none;rounded=0;" edge="1" parent="1" source="8Y5Sv0htWd_NGtNkYQzM-2">
          <mxGeometry relative="1" as="geometry">
            <mxPoint x="605" y="380" as="targetPoint" />
          </mxGeometry>
        </mxCell>
        <mxCell id="8Y5Sv0htWd_NGtNkYQzM-4" value="Admin" style="text;html=1;align=center;verticalAlign=middle;whiteSpace=wrap;rounded=0;" vertex="1" parent="1">
          <mxGeometry x="545" y="270" width="60" height="30" as="geometry" />
        </mxCell>
        <mxCell id="8Y5Sv0htWd_NGtNkYQzM-5" style="edgeStyle=orthogonalEdgeStyle;rounded=0;orthogonalLoop=1;jettySize=auto;html=1;entryX=0.5;entryY=0;entryDx=0;entryDy=0;" edge="1" parent="1" source="8Y5Sv0htWd_NGtNkYQzM-6" target="8Y5Sv0htWd_NGtNkYQzM-8">
          <mxGeometry relative="1" as="geometry" />
        </mxCell>
        <mxCell id="8Y5Sv0htWd_NGtNkYQzM-6" value="Open system" style="rounded=1;whiteSpace=wrap;html=1;" vertex="1" parent="1">
          <mxGeometry x="535" y="350" width="80" height="50" as="geometry" />
        </mxCell>
        <mxCell id="8Y5Sv0htWd_NGtNkYQzM-7" style="edgeStyle=orthogonalEdgeStyle;rounded=0;orthogonalLoop=1;jettySize=auto;html=1;entryX=0.5;entryY=0;entryDx=0;entryDy=0;" edge="1" parent="1" source="8Y5Sv0htWd_NGtNkYQzM-8" target="8Y5Sv0htWd_NGtNkYQzM-10">
          <mxGeometry relative="1" as="geometry" />
        </mxCell>
        <mxCell id="8Y5Sv0htWd_NGtNkYQzM-8" value="Login" style="rounded=1;whiteSpace=wrap;html=1;" vertex="1" parent="1">
          <mxGeometry x="535" y="430" width="80" height="50" as="geometry" />
        </mxCell>
        <mxCell id="8Y5Sv0htWd_NGtNkYQzM-9" style="edgeStyle=orthogonalEdgeStyle;rounded=0;orthogonalLoop=1;jettySize=auto;html=1;entryX=0.5;entryY=0;entryDx=0;entryDy=0;" edge="1" parent="1" source="8Y5Sv0htWd_NGtNkYQzM-10">
          <mxGeometry relative="1" as="geometry">
            <mxPoint x="575" y="590" as="targetPoint" />
          </mxGeometry>
        </mxCell>
        <mxCell id="8Y5Sv0htWd_NGtNkYQzM-10" value="Click user management" style="rounded=1;whiteSpace=wrap;html=1;" vertex="1" parent="1">
          <mxGeometry x="535" y="510" width="80" height="50" as="geometry" />
        </mxCell>
        <mxCell id="8Y5Sv0htWd_NGtNkYQzM-22" style="edgeStyle=orthogonalEdgeStyle;rounded=0;orthogonalLoop=1;jettySize=auto;html=1;entryX=0.5;entryY=0;entryDx=0;entryDy=0;" edge="1" parent="1" source="8Y5Sv0htWd_NGtNkYQzM-12" target="8Y5Sv0htWd_NGtNkYQzM-21">
          <mxGeometry relative="1" as="geometry" />
        </mxCell>
        <mxCell id="8Y5Sv0htWd_NGtNkYQzM-12" value="Perfrom one or more actions" style="rounded=1;whiteSpace=wrap;html=1;" vertex="1" parent="1">
          <mxGeometry x="535" y="670" width="80" height="50" as="geometry" />
        </mxCell>
        <mxCell id="8Y5Sv0htWd_NGtNkYQzM-13" value="" style="ellipse;html=1;shape=endState;fillColor=#000000;strokeColor=light-dark(#000000, #ff9090);" vertex="1" parent="1">
          <mxGeometry x="560" y="900" width="30" height="30" as="geometry" />
        </mxCell>
        <mxCell id="8Y5Sv0htWd_NGtNkYQzM-14" style="edgeStyle=orthogonalEdgeStyle;rounded=0;orthogonalLoop=1;jettySize=auto;html=1;entryX=0.5;entryY=0;entryDx=0;entryDy=0;" edge="1" parent="1" source="8Y5Sv0htWd_NGtNkYQzM-15" target="8Y5Sv0htWd_NGtNkYQzM-12">
          <mxGeometry relative="1" as="geometry" />
        </mxCell>
        <mxCell id="8Y5Sv0htWd_NGtNkYQzM-15" value="Select a user account" style="rounded=1;whiteSpace=wrap;html=1;" vertex="1" parent="1">
          <mxGeometry x="535" y="590" width="80" height="50" as="geometry" />
        </mxCell>
        <mxCell id="8Y5Sv0htWd_NGtNkYQzM-16" style="edgeStyle=orthogonalEdgeStyle;rounded=0;orthogonalLoop=1;jettySize=auto;html=1;entryX=0.5;entryY=0;entryDx=0;entryDy=0;" edge="1" parent="1" source="8Y5Sv0htWd_NGtNkYQzM-18" target="8Y5Sv0htWd_NGtNkYQzM-13">
          <mxGeometry relative="1" as="geometry" />
        </mxCell>
        <mxCell id="8Y5Sv0htWd_NGtNkYQzM-17" style="edgeStyle=orthogonalEdgeStyle;rounded=0;orthogonalLoop=1;jettySize=auto;html=1;entryX=0;entryY=0.5;entryDx=0;entryDy=0;" edge="1" parent="1" source="8Y5Sv0htWd_NGtNkYQzM-18" target="8Y5Sv0htWd_NGtNkYQzM-15">
          <mxGeometry relative="1" as="geometry">
            <Array as="points">
              <mxPoint x="480" y="865" />
              <mxPoint x="480" y="615" />
            </Array>
          </mxGeometry>
        </mxCell>
        <mxCell id="8Y5Sv0htWd_NGtNkYQzM-18" value="" style="rhombus;whiteSpace=wrap;html=1;" vertex="1" parent="1">
          <mxGeometry x="560" y="850" width="30" height="30" as="geometry" />
        </mxCell>
        <mxCell id="8Y5Sv0htWd_NGtNkYQzM-19" value="[succesful]" style="text;html=1;align=center;verticalAlign=middle;whiteSpace=wrap;rounded=0;" vertex="1" parent="1">
          <mxGeometry x="580" y="820" width="60" height="30" as="geometry" />
        </mxCell>
        <mxCell id="8Y5Sv0htWd_NGtNkYQzM-20" value="[not succesful]" style="text;html=1;align=center;verticalAlign=middle;whiteSpace=wrap;rounded=0;" vertex="1" parent="1">
          <mxGeometry x="420" y="680" width="60" height="30" as="geometry" />
        </mxCell>
        <mxCell id="8Y5Sv0htWd_NGtNkYQzM-23" style="edgeStyle=orthogonalEdgeStyle;rounded=0;orthogonalLoop=1;jettySize=auto;html=1;entryX=0.5;entryY=0;entryDx=0;entryDy=0;" edge="1" parent="1" source="8Y5Sv0htWd_NGtNkYQzM-21" target="8Y5Sv0htWd_NGtNkYQzM-18">
          <mxGeometry relative="1" as="geometry" />
        </mxCell>
        <mxCell id="8Y5Sv0htWd_NGtNkYQzM-21" value="Click save" style="rounded=1;whiteSpace=wrap;html=1;" vertex="1" parent="1">
          <mxGeometry x="535" y="760" width="80" height="50" as="geometry" />
        </mxCell>
      </root>
    </mxGraphModel>
  </diagram>
</mxfile>
